<?xml version="1.0" encoding="UTF-8" standalone="no"?>
<svg
   height="40px"
   viewBox="0 -960 960 960"
   width="40px"
   fill="#5985E1"
   version="1.1"
   id="svg1"
   sodipodi:docname="mask_left_bottom.svg"
   inkscape:version="1.3.1 (9b9bdc1480, 2023-11-25, custom)"
   xmlns:inkscape="http://www.inkscape.org/namespaces/inkscape"
   xmlns:sodipodi="http://sodipodi.sourceforge.net/DTD/sodipodi-0.dtd"
   xmlns="http://www.w3.org/2000/svg"
   xmlns:svg="http://www.w3.org/2000/svg">
  <defs
     id="defs1" />
  <sodipodi:namedview
     id="namedview1"
     pagecolor="#ffffff"
     bordercolor="#000000"
     borderopacity="0.25"
     inkscape:showpageshadow="2"
     inkscape:pageopacity="0.0"
     inkscape:pagecheckerboard="0"
     inkscape:deskcolor="#d1d1d1"
     showgrid="false"
     showguides="true"
     inkscape:zoom="16.05"
     inkscape:cx="31.682243"
     inkscape:cy="20.996885"
     inkscape:window-width="1482"
     inkscape:window-height="896"
     inkscape:window-x="54"
     inkscape:window-y="27"
     inkscape:window-maximized="1"
     inkscape:current-layer="svg1">
    <sodipodi:guide
       position="480,791.02804"
       orientation="1,0"
       id="guide1"
       inkscape:locked="false" />
    <sodipodi:guide
       position="158.50467,480"
       orientation="0,-1"
       id="guide2"
       inkscape:locked="false" />
  </sodipodi:namedview>
  <path
     d="m 186.67,-120 c -18,0 -33.61333,-6.61 -46.84,-19.83 C 126.61,-153.05667 120,-168.67 120,-186.67 v -226.2272 c 0,-18 6.61,-33.61 19.83,-46.83 13.22667,-13.22666 28.84,-19.84 46.84,-19.84 h 228.23009 c 18,0 33.61334,6.61334 46.84,19.84 13.22,13.22 19.83,28.83 19.83,46.83 V -186.67 c 0,18 -6.61,33.61333 -19.83,46.84 -13.22666,13.22 -28.84,19.83 -46.84,19.83 z m 0,-0.35804 c -18,0 -33.61333,-6.61333 -46.84,-19.84 -13.22,-13.22 -19.83,-28.83 -19.83,-46.83 V -773.33 c 0,-18 6.61,-33.61333 19.83,-46.84 13.22667,-13.22 28.84,-19.83 46.84,-19.83 h 586.66 c 18,0 33.61333,6.61 46.84,19.83 13.22,13.22667 19.83,28.84 19.83,46.84 v 586.30196 c 0,18 -6.61,33.61 -19.83,46.83 -13.22667,13.22667 -28.84,19.84 -46.84,19.84 z M 773.33,-773.33 H 186.67 v 586.30196 h 586.66 z"
     id="path1"
     sodipodi:nodetypes="scsssssssscsssssscsscsssssccccc" />
</svg>
